<svg version="1" xmlns="http://www.w3.org/2000/svg" width="864" height="864" viewBox="0 0 648.000000 648.000000"><path d="M457.4 202c0 73.1-.3 133.3-.7 133.6-.4.4-2.4-.4-4.4-1.8-4.4-2.8-22.4-10.8-24.5-10.8-.8 0-1.8-.4-2.3-.8-.8-.7-5.6-2-14-3.8-13-2.7-24.3-3.8-40-3.7-10.6 0-27.8 1.1-29.8 1.8-.7.3-2.5.7-4.2.9-4 .6-8.2 1.5-13 2.8-2.2.5-4.7 1.2-5.5 1.3-7.6 1.7-24.7 9.4-34.6 15.7-12.9 8.2-25.4 22.1-31.6 34.9-12.4 25.8-9.4 55 8.1 78.9 10.3 14.1 30.2 27.8 51.6 35.4 18.8 6.6 32.5 8.7 58 8.9 20.7.2 37.4-1.4 45-4.3 1.4-.5 2.5-.8 2.5-.5 0 .8 20.4-6.7 27.2-10 3.7-1.9 8.7-4.7 11.2-6.4 2.5-1.7 4.7-3.1 5-3.1.9 0 6.5-4.9 13.3-11.8 11.3-11.5 19-25.6 21.7-40.2 1.1-5.4 1.3-33.8 1.4-134.5 0-70.2.2-127.8.4-128.1 2-2 47.1 20 48.6 23.8.2.4.8.8 1.3.8.6 0 1.5.4 2.2 1 .7.5 4.6 3.6 8.7 6.8 4.1 3.2 10.5 9 14.2 12.8 6.8 7.1 14.3 16.4 13.1 16.4-.3 0 .1.8.9 1.7 2.1 2.4 5.2 8.8 7.2 14.9 6.8 20.9 2.2 44.7-12.9 66-2.4 3.3-5 6.6-5.9 7.3-3.5 2.9-1.3 2.9 4.2-.1 15.3-8.4 25.9-17.8 33.8-30.4 4.4-7 9.1-18.8 9.7-24.2.2-1.5.5-3.2.8-3.7.6-1.3.3-15-.5-20.3-1.5-10.7-9.7-28.5-17.3-38-14.2-17.7-27-27.9-57.3-45.7-17-10.1-31.2-18.7-32-19.5-.3-.3-3.6-2.6-7.5-5-3.8-2.5-7.7-5-8.5-5.7-.8-.7-4.4-3.3-8-6-13.7-10-30.8-29.5-33.4-38.1-.4-1.2-1.1-2.2-1.5-2.2-.4 0-.7 59.8-.7 133zm-67.9 119.9c22.9 5.4 41.8 20.4 52.5 41.8 7.1 14.2 8.7 20.8 10.2 40.8.2 3.6-1.5 15-3.2 21.4-7 25.3-26.5 48.6-49.5 59.1-18.1 8.3-39.3 7.7-58.1-1.5-21.5-10.5-40.2-33.6-47.5-58.5-2.5-8.7-3.5-29.7-1.8-37 .6-2.5 1.3-5.5 1.5-6.8.9-4.4 5.8-15.7 9.8-22.6 4.5-7.7 15.5-19.5 22.6-24.3 9.1-6.1 22.7-11.7 30.9-12.8 2.5-.3 4.6-.7 4.8-.9.8-.8 23.2.2 27.8 1.3zM186.5 234.1c-11.3 1-19.4 2.4-29.5 4.9-12.7 3.2-36 12.2-36.8 14.2-.2.4-.8.8-1.4.8-1.8 0-14.9 8.1-23.9 15-10.3 7.6-23.8 20.5-29.5 28-2.1 2.7-4.2 5-4.6 5-.4 0-.8.7-.8 1.5s-.3 1.5-.8 1.5c-.4 0-1.6 1.6-2.6 3.5s-2.6 4.2-3.5 5.3c-3.9 4.5-13 23-17.5 35.7-2.6 7.4-5.1 16.7-6 22.5-.3 1.9-.8 4.6-1.1 6-2.4 11-2.5 38.1-.1 50.5.9 4.8 2.1 11.1 2.2 12 .1.5.3 1.3.4 1.7.1.5.3 1.1.5 1.5.1.5.5 2 .9 3.4s.9 3.2 1 4c.4 1.8.9 3.1 5.9 15.9 4 10 13.5 27.3 18.4 33.5 1.3 1.6 2.7 3.5 3.1 4 4.4 6.2 18.5 21.2 24.3 26 13.7 11.4 23.6 17.9 37.5 24.8 12.1 6 27.4 11.6 36.3 13.3.7.1 3.4.7 6 1.3 11.8 2.7 20.5 3.5 36.1 3.3 7.4-.1 14.9-.4 16.5-.6 1.7-.3 3.7-.5 4.5-.6.8-.1-2.3-1-7-2-22.8-5.1-40.6-12.4-58.6-24.3-3.8-2.5-7.8-5.4-8.9-6.4-1.1-1-2.9-2.5-4.1-3.3-3.4-2.4-11.5-10.1-17.7-16.8-5.8-6.5-16.7-20.6-16.7-21.9 0-.3-.6-1.4-1.4-2.2-2.5-2.9-14.1-26.4-13.7-27.8 0-.2-.9-2.4-2-4.9-1.9-4.6-5.6-17.5-6.4-22.4-.2-1.4-.6-3.5-.9-4.7-1.9-8.9-2.5-16.8-2.6-31.3 0-16.9.7-23.7 4.1-39.5 1-4.8 3.4-13.3 4.6-16.5.3-.8.7-2 .8-2.5 1.4-5.7 14.3-32.5 15.7-32.5.4 0 .8-.5.8-1 0-1.3 6-9.9 12.6-18 6-7.4 19-20.2 24.9-24.6 2.2-1.6 4.9-3.7 5.9-4.6 1.1-1 2.8-2 3.8-2.4 1-.3 1.8-1 1.8-1.5s.5-.9 1.1-.9c.6 0 2.3-.8 3.7-1.9 5.4-3.8 21-11.2 31.7-15 6.1-2.1 11.3-3.9 11.8-3.9.4 0 3.1-.6 6-1.1 2.8-.6 6.3-1.3 7.6-1.6 4.4-.8 3.3-1.3-5.1-2-11-1-18.8-1.1-27.3-.4z"/><path d="M234.8 261.5c-.2.2-3 .6-6.3 1-3.2.3-6.2.8-6.5 1-.3.2-2.3.6-4.5.9-5.8.9-18.8 4.6-20 5.7-.5.5-1.5.9-2.3.9-1.4 0-9.2 3.2-12.7 5.2-1.1.7-3.3 1.8-5 2.7-3.3 1.6-15.7 9.2-16.5 10.1-.3.3-2.7 2.2-5.5 4.4-7.9 6.1-22.7 21.8-28.5 30.2-6.1 8.8-13 21.1-13 23 0 .8-.5 1.4-1.1 1.4-.5 0-.8.4-.5.8.3.5-.1 2-.8 3.4-1.5 2.9-5.4 14.3-6.1 17.7-.2 1.2-.6 3-.9 3.9-.5 1.7-1 4.1-2.2 12.2-2 13.8-.6 36.7 3.1 51 3.1 12.2 13 35.9 15.5 37.5.5.3 1.6 2.1 2.5 3.8 3.6 7.5 20.6 26.6 30.5 34.2 2.9 2.2 5.8 4.6 6.5 5.2.8.7 1.8 1.3 2.3 1.3.6 0 1.2.4 1.4.9.4 1.2 13.5 8.8 21.1 12.4 9.6 4.5 25.9 9.7 35.2 11.2 2.2.4 5.1.9 6.5 1.1 4.8.9 28.6 1.2 33.5.4 5.4-.8 5.5-.9 1-1.6-3.8-.6-17.3-4.2-20-5.4-1.1-.4-4.7-1.8-8-3.1-3.3-1.2-6.7-2.8-7.6-3.6-.8-.7-2-1.3-2.5-1.3-2.6 0-19.6-11.8-28.3-19.5-8-7.2-24.1-26.3-24.1-28.7 0-.4-1.2-2.4-2.6-4.5-4.1-6-11.6-22.9-12.8-28.8-.1-.6-.7-2.6-1.4-4.5-.6-1.9-1.3-4.6-1.6-6-.3-1.4-.9-4.8-1.4-7.5-1.7-8.5-2.3-14.7-2.4-25.5-.1-12.2.7-20.5 2.7-30 .3-1.4.7-3.4.9-4.5 1.7-8.8 5.6-19.6 11.2-31.2 16.3-33.9 45.1-59.1 80.7-70.8 10.2-3.3 15.2-4.5 19.4-4.8 2.5-.1 2.2-.9-.5-1.4-2.1-.5-28-1.1-28.4-.8z"/><path d="M289.7 283.6c-.1.1-2.9.5-6.2.8-15.3 1.4-27.3 4.9-44.5 12.9-1.4.7-2.7 1.4-3 1.7-.3.3-2.5 1.6-5 2.9-2.5 1.4-4.7 2.7-5 3-.3.4-3.2 2.6-6.5 5-21.4 15.8-37.6 40.6-45 69.1-.1.5-1.5 9.3-2.2 14-.4 3.2-.3 19.6.2 23.5.4 3.2 1.8 11.7 2 12.5.1.3.7 2.5 1.4 5 5.4 19.9 16.1 38.1 31.1 53 9 8.9 10.8 10.4 18.8 15.9 15.5 10.5 36.1 18.2 55.7 20.8 6.8.8 26.8.4 27.8-.6.8-.8.4-1.1-1.4-1.1-4.8 0-20.8-5.4-31-10.4-16.6-8.2-34.1-24.1-45.1-41.2-3.1-4.8-9.8-18-10.3-20.3-.2-.9-1.3-4.1-2.5-7.1-1.1-3-2.2-6.9-2.5-8.5-.2-1.7-.4-3-.5-3-.2 0-.8-2.6-1.5-7-.3-2.2-.8-5.1-1.1-6.5-.6-3.5-.5-23.6.1-29 1-7.8 2.6-15.2 4.8-22.5 1.2-3.9 2-7.3 1.9-7.8-.1-.4.3-.7.8-.7.6 0 1-.6 1-1.3 0-2.6 8-17.5 13.6-25.2 5.2-7.4 21.7-24.5 23.5-24.5.4 0 1.4-.6 2.1-1.3 6.9-6.5 30.7-17.2 42.5-19.1.7-.1 1.5-.5 1.9-.8.3-.4 1.2-.4 2-.1.8.3 1.4 0 1.4-.6s-1.2-1.1-2.7-1.2c-1.6 0-5.9-.1-9.6-.3-3.7-.1-6.9-.1-7 0z"/></svg>